<svg xmlns="http://www.w3.org/2000/svg" xmlns:xlink="http://www.w3.org/1999/xlink" width="500" zoomAndPan="magnify" viewBox="0 0 375 374.999991" height="500" preserveAspectRatio="xMidYMid meet" version="1.0"><defs><filter x="0%" y="0%" width="100%" height="100%" id="7f5278e895"><feColorMatrix values="0 0 0 0 1 0 0 0 0 1 0 0 0 0 1 0 0 0 1 0" color-interpolation-filters="sRGB"/></filter><g/><mask id="5d0668cf3d"><g filter="url(#7f5278e895)"><rect x="-37.5" width="450" fill="#000000" y="-37.499999" height="449.999989" fill-opacity="0.33"/></g></mask><clipPath id="f4468bb925"><path d="M 1 0.921875 L 38 0.921875 L 38 18.839844 L 1 18.839844 Z M 1 0.921875 " clip-rule="nonzero"/></clipPath><clipPath id="209c9de1ef"><rect x="0" width="39" y="0" height="38"/></clipPath><mask id="73a4914316"><g filter="url(#7f5278e895)"><rect x="-37.5" width="450" fill="#000000" y="-37.499999" height="449.999989" fill-opacity="0.33"/></g></mask><clipPath id="d9eb55ee61"><path d="M 1.253906 38 L 39.503906 38 L 39.503906 66 L 1.253906 66 Z M 1.253906 38 " clip-rule="nonzero"/></clipPath><clipPath id="34ecc53aeb"><path d="M 6 68 L 34 68 L 34 71.738281 L 6 71.738281 Z M 6 68 " clip-rule="nonzero"/></clipPath><clipPath id="af98c98a47"><path d="M 2 27.488281 L 39 27.488281 L 39 37 L 2 37 Z M 2 27.488281 " clip-rule="nonzero"/></clipPath><clipPath id="da94447f77"><rect x="0" width="40" y="0" height="73"/></clipPath><clipPath id="5e4be13264"><path d="M 286 165.769531 L 294.1875 165.769531 L 294.1875 169.519531 L 286 169.519531 Z M 286 165.769531 " clip-rule="nonzero"/></clipPath><clipPath id="fd808d40cd"><path d="M 289.960938 172.292969 L 301.027344 172.292969 L 301.027344 175.574219 L 289.960938 175.574219 Z M 289.960938 172.292969 " clip-rule="nonzero"/></clipPath><clipPath id="416b191685"><path d="M 290.652344 173.734375 C 296.652344 173.339844 299.464844 172.472656 300.304688 172.597656 C 300.578125 172.648438 300.699219 172.722656 300.824219 172.871094 C 300.949219 172.992188 301.023438 173.238281 301.023438 173.414062 C 301.023438 173.585938 300.949219 173.832031 300.824219 173.957031 C 300.699219 174.105469 300.578125 174.152344 300.304688 174.226562 C 299.566406 174.449219 296.652344 174.84375 295.910156 174.574219 C 295.589844 174.449219 295.417969 174.226562 295.34375 174.03125 C 295.269531 173.855469 295.269531 173.660156 295.34375 173.488281 C 295.46875 173.265625 295.9375 172.945312 296.183594 172.917969 C 296.382812 172.917969 296.554688 172.992188 296.703125 173.117188 C 296.851562 173.289062 296.972656 173.632812 296.972656 173.855469 C 296.972656 174.03125 296.875 174.226562 296.75 174.351562 C 296.578125 174.5 296.234375 174.621094 296.011719 174.597656 C 295.765625 174.546875 295.492188 174.300781 295.367188 174.105469 C 295.292969 173.957031 295.246094 173.757812 295.320312 173.585938 C 295.417969 173.339844 295.691406 173.089844 296.109375 172.917969 C 296.949219 172.597656 299.789062 172.300781 300.503906 172.648438 C 300.847656 172.796875 301.023438 173.164062 301.023438 173.414062 C 301.023438 173.660156 300.847656 173.957031 300.503906 174.175781 C 299.664062 174.695312 296.800781 174.917969 295.074219 175.089844 C 293.46875 175.238281 291.171875 175.558594 290.457031 175.191406 C 290.136719 175.015625 289.988281 174.695312 289.960938 174.472656 C 289.960938 174.277344 290.0625 174.078125 290.183594 173.957031 C 290.285156 173.832031 290.652344 173.734375 290.652344 173.734375 " clip-rule="nonzero"/></clipPath><clipPath id="37bc683f1c"><path d="M 290.003906 175.203125 L 301.578125 175.203125 L 301.578125 177.347656 L 290.003906 177.347656 Z M 290.003906 175.203125 " clip-rule="nonzero"/></clipPath><clipPath id="7590e39bed"><path d="M 290.828125 175.707031 C 301.046875 175.289062 301.121094 175.289062 301.242188 175.386719 C 301.367188 175.511719 301.539062 175.808594 301.539062 176.003906 C 301.539062 176.203125 301.367188 176.5 301.195312 176.597656 C 300.996094 176.695312 300.503906 176.644531 300.332031 176.523438 C 300.15625 176.398438 300.058594 176.078125 300.082031 175.882812 C 300.132812 175.660156 300.480469 175.289062 300.699219 175.265625 C 300.949219 175.214844 301.367188 175.484375 301.464844 175.683594 C 301.566406 175.882812 301.515625 176.203125 301.417969 176.375 C 301.34375 176.5 301.269531 176.570312 301.046875 176.644531 C 300.207031 176.992188 296.011719 177.117188 294.109375 177.1875 C 292.777344 177.238281 291.371094 177.335938 290.726562 177.164062 C 290.457031 177.066406 290.285156 176.96875 290.160156 176.792969 C 290.0625 176.671875 290.011719 176.449219 290.085938 176.300781 C 290.160156 176.078125 290.828125 175.707031 290.828125 175.707031 " clip-rule="nonzero"/></clipPath><clipPath id="666c50ac26"><path d="M 291.386719 176.785156 L 300.40625 176.785156 L 300.40625 179.421875 L 291.386719 179.421875 Z M 291.386719 176.785156 " clip-rule="nonzero"/></clipPath><clipPath id="a490eeee80"><path d="M 292.160156 177.609375 C 300.035156 176.894531 300.15625 177.015625 300.28125 177.1875 C 300.355469 177.3125 300.40625 177.484375 300.355469 177.660156 C 300.28125 177.855469 299.910156 178.203125 299.714844 178.25 C 299.566406 178.300781 299.394531 178.25 299.246094 178.152344 C 299.097656 178.054688 298.921875 177.757812 298.898438 177.585938 C 298.875 177.410156 298.921875 177.238281 299.023438 177.117188 C 299.144531 176.96875 299.417969 176.792969 299.613281 176.792969 C 299.835938 176.792969 300.109375 176.96875 300.230469 177.117188 C 300.332031 177.238281 300.378906 177.410156 300.355469 177.558594 C 300.332031 177.757812 300.207031 178.027344 300.011719 178.152344 C 299.738281 178.347656 299.367188 178.347656 298.777344 178.449219 C 297.46875 178.671875 293.269531 179.410156 292.183594 179.066406 C 291.789062 178.941406 291.519531 178.671875 291.445312 178.449219 C 291.394531 178.25 291.542969 177.929688 291.667969 177.804688 C 291.789062 177.683594 292.160156 177.609375 292.160156 177.609375 " clip-rule="nonzero"/></clipPath><clipPath id="e12dc90112"><path d="M 292.207031 176.855469 L 302.558594 176.855469 L 302.558594 180 L 292.207031 180 Z M 292.207031 176.855469 " clip-rule="nonzero"/></clipPath><clipPath id="1b60bbc6a3"><path d="M 292.800781 178.128906 C 302.058594 176.96875 302.230469 177.042969 302.355469 177.164062 C 302.453125 177.289062 302.527344 177.4375 302.527344 177.609375 C 302.503906 177.78125 302.378906 178.078125 302.230469 178.203125 C 302.109375 178.300781 301.960938 178.347656 301.789062 178.347656 C 301.613281 178.324219 301.316406 178.175781 301.21875 178.027344 C 301.121094 177.90625 301.070312 177.734375 301.097656 177.585938 C 301.097656 177.4375 301.144531 177.261719 301.269531 177.164062 C 301.390625 177.042969 301.6875 176.867188 301.886719 176.917969 C 302.109375 176.96875 302.453125 177.3125 302.503906 177.511719 C 302.550781 177.660156 302.527344 177.832031 302.429688 177.980469 C 302.332031 178.128906 302.183594 178.226562 301.886719 178.347656 C 300.699219 178.792969 294.160156 180.003906 292.898438 179.558594 C 292.480469 179.4375 292.234375 179.140625 292.234375 178.894531 C 292.210938 178.644531 292.800781 178.128906 292.800781 178.128906 " clip-rule="nonzero"/></clipPath><clipPath id="f69b2ddcf8"><path d="M 280.773438 173.230469 L 306.15625 173.230469 L 306.15625 180.78125 L 280.773438 180.78125 Z M 280.773438 173.230469 " clip-rule="nonzero"/></clipPath><clipPath id="5bc4c0157f"><path d="M 301.910156 176.941406 C 282.1875 177.929688 282.113281 177.929688 281.988281 177.832031 C 281.867188 177.734375 281.742188 177.535156 281.71875 177.386719 C 281.691406 177.1875 281.765625 176.867188 281.914062 176.71875 C 282.015625 176.597656 282.113281 176.546875 282.382812 176.5 C 283.71875 176.25 292.554688 177.089844 294.53125 177.535156 C 295.195312 177.683594 295.617188 177.757812 295.839844 178.027344 C 295.984375 178.226562 296.011719 178.546875 295.9375 178.769531 C 295.8125 179.039062 295.34375 179.289062 294.972656 179.4375 C 294.554688 179.582031 294.207031 179.558594 293.445312 179.609375 C 291.34375 179.78125 282.878906 180.71875 281.445312 180.101562 C 281.050781 179.929688 280.828125 179.632812 280.828125 179.410156 C 280.855469 179.164062 281.050781 178.894531 281.445312 178.71875 C 282.925781 178.078125 292.285156 178.277344 293.765625 178.746094 C 294.160156 178.867188 294.332031 178.964844 294.40625 179.164062 C 294.480469 179.363281 294.429688 179.757812 294.234375 179.929688 C 293.863281 180.226562 292.875 180.078125 291.8125 180.027344 C 289.789062 179.929688 283.691406 179.410156 282.902344 178.792969 C 282.730469 178.671875 282.707031 178.523438 282.707031 178.347656 C 282.707031 178.175781 282.804688 177.90625 283 177.757812 C 283.273438 177.558594 283.792969 177.632812 284.53125 177.609375 C 286.359375 177.535156 292.898438 177.289062 294.183594 177.707031 C 294.578125 177.804688 294.75 177.953125 294.851562 178.152344 C 294.925781 178.324219 294.851562 178.621094 294.777344 178.792969 C 294.679688 178.917969 294.554688 179.015625 294.355469 179.066406 C 294.035156 179.164062 293.617188 179.089844 292.925781 179.039062 C 290.976562 178.917969 282.953125 178.449219 281.914062 177.734375 C 281.667969 177.558594 281.621094 177.363281 281.621094 177.1875 C 281.621094 176.992188 281.71875 176.769531 281.914062 176.621094 C 282.308594 176.324219 283.296875 176.277344 284.335938 176.152344 C 286.1875 175.90625 291 175.289062 292.0625 175.707031 C 292.40625 175.832031 292.578125 176.054688 292.628906 176.277344 C 292.652344 176.5 292.53125 176.84375 292.285156 176.992188 C 291.863281 177.261719 290.726562 177.089844 289.816406 176.992188 C 288.605469 176.894531 286.433594 176.597656 285.742188 176.25 C 285.445312 176.128906 285.296875 175.980469 285.222656 175.78125 C 285.148438 175.585938 285.125 175.265625 285.296875 175.089844 C 285.519531 174.820312 286.210938 174.695312 286.976562 174.621094 C 288.507812 174.5 292.972656 174.746094 293.886719 175.289062 C 294.207031 175.484375 294.332031 175.757812 294.332031 175.980469 C 294.355469 176.175781 294.234375 176.425781 294.035156 176.546875 C 293.738281 176.769531 293.195312 176.769531 292.503906 176.769531 C 290.976562 176.769531 286.308594 176.472656 285.347656 175.929688 C 285.050781 175.734375 284.902344 175.511719 284.878906 175.289062 C 284.878906 175.066406 285.050781 174.792969 285.296875 174.621094 C 285.789062 174.351562 287.097656 174.472656 288.085938 174.472656 C 289.222656 174.5 291.171875 174.449219 291.789062 174.769531 C 292.035156 174.894531 292.183594 175.089844 292.210938 175.3125 C 292.257812 175.535156 292.160156 175.855469 291.886719 176.078125 C 291.195312 176.644531 287.964844 176.992188 286.730469 176.96875 C 286.011719 176.96875 285.394531 176.917969 285.074219 176.644531 C 284.851562 176.449219 284.730469 176.054688 284.753906 175.78125 C 284.777344 175.484375 285.027344 175.140625 285.273438 174.941406 C 285.519531 174.746094 285.765625 174.671875 286.261719 174.574219 C 287.542969 174.300781 292.429688 173.980469 293.46875 174.375 C 293.839844 174.5 294.011719 174.671875 294.085938 174.894531 C 294.160156 175.117188 294.109375 175.511719 293.988281 175.707031 C 293.863281 175.90625 293.617188 176.003906 293.269531 176.078125 C 292.605469 176.226562 291.148438 175.90625 290.035156 175.929688 C 288.902344 175.953125 287.347656 176.324219 286.554688 176.203125 C 286.085938 176.128906 285.71875 176.003906 285.519531 175.78125 C 285.347656 175.585938 285.320312 175.238281 285.347656 174.992188 C 285.394531 174.722656 285.519531 174.449219 285.765625 174.25 C 286.085938 173.980469 286.507812 173.855469 287.347656 173.707031 C 290.035156 173.238281 303.441406 173.289062 305.21875 173.585938 C 305.515625 173.632812 305.613281 173.660156 305.761719 173.757812 C 305.910156 173.882812 306.058594 174.054688 306.082031 174.25 C 306.132812 174.472656 306.058594 174.894531 305.910156 175.066406 C 305.738281 175.265625 305.34375 175.386719 305.121094 175.386719 C 304.921875 175.386719 304.726562 175.265625 304.578125 175.140625 C 304.453125 175.015625 304.328125 174.820312 304.304688 174.648438 C 304.304688 174.398438 304.402344 174.003906 304.578125 173.832031 C 304.773438 173.660156 305.167969 173.5625 305.390625 173.609375 C 305.589844 173.632812 305.785156 173.757812 305.910156 173.90625 C 306.007812 174.03125 306.105469 174.25 306.105469 174.449219 C 306.132812 174.621094 306.082031 174.84375 305.960938 174.992188 C 305.8125 175.191406 305.613281 175.289062 305.21875 175.386719 C 303.886719 175.707031 299.21875 175.238281 296.28125 175.238281 C 293.394531 175.265625 289.222656 176.027344 287.714844 175.484375 C 287.074219 175.238281 286.457031 174.671875 286.53125 174.425781 C 286.65625 174.078125 288.851562 174.175781 290.035156 174.175781 C 291.246094 174.175781 293.074219 174.078125 293.664062 174.449219 C 293.960938 174.597656 294.109375 174.867188 294.132812 175.089844 C 294.160156 175.363281 294.035156 175.757812 293.664062 175.980469 C 292.703125 176.597656 286.730469 176.867188 286.210938 176.277344 C 286.039062 176.078125 286.136719 175.632812 286.382812 175.410156 C 286.925781 174.894531 289.9375 174.820312 290.800781 174.746094 C 291.171875 174.695312 291.371094 174.648438 291.59375 174.722656 C 291.8125 174.769531 292.085938 174.941406 292.160156 175.140625 C 292.257812 175.3125 292.234375 175.660156 292.136719 175.832031 C 292.035156 176.003906 291.863281 176.128906 291.542969 176.203125 C 290.605469 176.449219 286.480469 176.375 285.519531 175.953125 C 285.148438 175.78125 284.902344 175.511719 284.878906 175.289062 C 284.878906 175.066406 285.101562 174.746094 285.46875 174.574219 C 286.582031 174.105469 292.628906 174.84375 293.714844 175.265625 C 294.035156 175.363281 294.183594 175.460938 294.257812 175.632812 C 294.355469 175.832031 294.28125 176.277344 294.160156 176.449219 C 294.035156 176.597656 293.839844 176.644531 293.542969 176.671875 C 292.851562 176.746094 291.222656 176.300781 289.988281 176.226562 C 288.628906 176.128906 286.40625 176.449219 285.742188 176.226562 C 285.496094 176.175781 285.394531 176.078125 285.296875 175.953125 C 285.199219 175.808594 285.148438 175.585938 285.175781 175.4375 C 285.175781 175.265625 285.273438 175.066406 285.394531 174.96875 C 285.519531 174.84375 285.644531 174.792969 285.890625 174.769531 C 286.804688 174.671875 291.171875 175.3125 292.0625 175.707031 C 292.355469 175.832031 292.503906 175.929688 292.578125 176.128906 C 292.652344 176.324219 292.679688 176.671875 292.429688 176.894531 C 291.519531 177.707031 283.222656 178.449219 282.0625 177.804688 C 281.71875 177.632812 281.59375 177.238281 281.644531 177.015625 C 281.691406 176.792969 281.964844 176.621094 282.382812 176.5 C 283.941406 176.101562 293.046875 177.140625 294.355469 177.707031 C 294.652344 177.855469 294.777344 177.980469 294.851562 178.152344 C 294.898438 178.324219 294.875 178.621094 294.777344 178.792969 C 294.652344 178.941406 294.53125 179.015625 294.183594 179.089844 C 292.828125 179.410156 284.113281 179.730469 283.050781 178.917969 C 282.730469 178.671875 282.707031 178.25 282.78125 178.027344 C 282.851562 177.832031 283.074219 177.707031 283.46875 177.632812 C 284.878906 177.3125 292.726562 178.226562 293.9375 178.769531 C 294.234375 178.894531 294.332031 178.992188 294.40625 179.164062 C 294.480469 179.335938 294.429688 179.65625 294.332031 179.804688 C 294.234375 179.953125 294.109375 180.027344 293.789062 180.101562 C 292.355469 180.449219 282.902344 180.769531 281.445312 180.101562 C 281.050781 179.90625 280.878906 179.609375 280.828125 179.410156 C 280.804688 179.238281 280.902344 179.066406 281.027344 178.941406 C 281.125 178.820312 281.222656 178.769531 281.496094 178.71875 C 282.902344 178.347656 294.628906 177.683594 294.875 178.277344 C 294.949219 178.398438 294.679688 178.695312 294.308594 178.820312 C 292.925781 179.363281 283.59375 178.375 282.308594 177.953125 C 282.039062 177.878906 281.964844 177.832031 281.867188 177.707031 C 281.742188 177.535156 281.644531 177.214844 281.71875 177.015625 C 281.816406 176.792969 282.089844 176.621094 282.605469 176.449219 C 284.851562 175.734375 299.6875 174.917969 301.761719 175.535156 C 302.230469 175.683594 302.429688 175.882812 302.527344 176.078125 C 302.578125 176.226562 302.527344 176.449219 302.453125 176.570312 C 302.355469 176.71875 301.910156 176.941406 301.910156 176.941406 " clip-rule="nonzero"/></clipPath><clipPath id="117e013f9a"><path d="M 277.304688 175.0625 L 293.957031 175.0625 L 293.957031 181 L 277.304688 181 Z M 277.304688 175.0625 " clip-rule="nonzero"/></clipPath><clipPath id="6a858c0007"><path d="M 278.09375 178.28125 C 286.453125 175.832031 290.828125 175.0625 292.414062 175.445312 C 293.132812 175.589844 293.664062 175.925781 293.808594 176.359375 C 293.953125 176.792969 293.664062 177.65625 293.328125 177.945312 C 292.992188 178.183594 292.367188 178.234375 292.03125 178.089844 C 291.742188 178.039062 291.453125 177.800781 291.355469 177.558594 C 291.164062 177.222656 291.066406 176.597656 291.261719 176.261719 C 291.40625 175.925781 291.886719 175.492188 292.269531 175.445312 C 292.703125 175.398438 293.519531 175.878906 293.757812 176.214844 C 293.953125 176.453125 293.953125 176.792969 293.855469 177.078125 C 293.757812 177.464844 293.566406 177.800781 293.039062 178.089844 C 291.742188 178.808594 287.03125 178.617188 284.484375 179.144531 C 282.371094 179.625 280.015625 181.066406 278.8125 180.925781 C 278.191406 180.828125 277.613281 180.445312 277.46875 180.058594 C 277.324219 179.578125 278.09375 178.28125 278.09375 178.28125 " clip-rule="nonzero"/></clipPath><clipPath id="b4dbeba067"><path d="M 279.1875 173.261719 L 291 173.261719 L 291 178.605469 L 279.1875 178.605469 Z M 279.1875 173.261719 " clip-rule="nonzero"/></clipPath><clipPath id="df066f7d0d"><path d="M 281.855469 177.289062 C 279.605469 177.230469 279.460938 177.0625 279.386719 176.726562 C 279.285156 176.273438 279.3125 175.035156 279.484375 174.585938 C 279.707031 174.023438 280.125 174.191406 280.765625 174.078125 C 282.445312 173.742188 289.011719 173.292969 290.246094 173.910156 C 290.566406 174.078125 290.714844 174.191406 290.839844 174.53125 C 290.9375 174.867188 290.988281 175.542969 290.9375 175.9375 C 290.863281 176.332031 290.640625 176.835938 290.46875 176.949219 C 290.296875 177.0625 289.976562 176.949219 289.851562 176.613281 C 289.703125 176.273438 289.605469 175.261719 289.679688 174.8125 C 289.753906 174.417969 290 174.023438 290.171875 173.910156 C 290.371094 173.855469 290.667969 174.078125 290.789062 174.417969 C 290.914062 174.699219 291.011719 175.375 290.9375 175.769531 C 290.886719 176.273438 290.691406 176.667969 290.320312 177.007812 C 288.988281 178.132812 281.410156 178.582031 280.003906 177.398438 C 279.558594 177.0625 279.335938 176.5 279.261719 175.992188 C 279.210938 175.65625 279.285156 175.207031 279.386719 174.867188 C 279.484375 174.53125 279.679688 174.25 279.953125 174.136719 C 280.472656 173.855469 281.925781 173.742188 282.296875 174.417969 C 282.519531 174.8125 282.59375 175.710938 282.519531 176.21875 C 282.445312 176.667969 281.855469 177.289062 281.855469 177.289062 " clip-rule="nonzero"/></clipPath><clipPath id="1867b9429d"><path d="M 292.878906 175.679688 L 302.910156 175.679688 L 302.910156 177.9375 L 292.878906 177.9375 Z M 292.878906 175.679688 " clip-rule="nonzero"/></clipPath><clipPath id="fe7698938d"><path d="M 302.269531 177.609375 C 297.675781 177.90625 294.617188 177.929688 293.652344 177.558594 C 293.28125 177.410156 293.035156 177.1875 292.960938 176.992188 C 292.886719 176.84375 292.9375 176.671875 293.011719 176.523438 C 293.085938 176.351562 293.355469 176.128906 293.554688 176.078125 C 293.753906 176.054688 294.074219 176.175781 294.222656 176.300781 C 294.34375 176.398438 294.417969 176.570312 294.417969 176.71875 C 294.441406 176.867188 294.417969 177.066406 294.34375 177.1875 C 294.222656 177.363281 293.949219 177.558594 293.753906 177.558594 C 293.53125 177.585938 293.234375 177.4375 293.109375 177.289062 C 292.988281 177.164062 292.914062 176.992188 292.9375 176.84375 C 292.960938 176.621094 293.136719 176.277344 293.480469 176.101562 C 294.34375 175.683594 297.628906 176.375 299.230469 176.351562 C 300.390625 176.324219 301.675781 176.003906 302.242188 176.128906 C 302.464844 176.175781 302.613281 176.226562 302.710938 176.351562 C 302.835938 176.472656 302.910156 176.671875 302.910156 176.84375 C 302.910156 177.015625 302.835938 177.214844 302.738281 177.335938 C 302.640625 177.484375 302.269531 177.609375 302.269531 177.609375 " clip-rule="nonzero"/></clipPath><clipPath id="49b33688b1"><path d="M 298.871094 175.589844 L 302 175.589844 L 302 178.738281 L 298.871094 178.738281 Z M 298.871094 175.589844 " clip-rule="nonzero"/></clipPath><clipPath id="95a71fdfc2"><path d="M 300.15625 175.855469 C 301.960938 177.878906 301.910156 178.300781 301.738281 178.472656 C 301.566406 178.644531 301.046875 178.71875 300.824219 178.621094 C 300.652344 178.523438 300.453125 178.226562 300.453125 178.027344 C 300.429688 177.804688 300.527344 177.484375 300.726562 177.363281 C 300.921875 177.238281 301.441406 177.1875 301.640625 177.335938 C 301.835938 177.460938 302.007812 177.980469 301.910156 178.203125 C 301.835938 178.421875 301.464844 178.71875 301.144531 178.71875 C 300.625 178.671875 299.417969 177.363281 299.097656 176.917969 C 298.949219 176.71875 298.875 176.597656 298.875 176.425781 C 298.875 176.226562 298.996094 175.929688 299.144531 175.78125 C 299.292969 175.683594 299.492188 175.609375 299.664062 175.632812 C 299.835938 175.632812 300.15625 175.855469 300.15625 175.855469 " clip-rule="nonzero"/></clipPath><clipPath id="980d118d90"><path d="M 286.21875 174.125 L 300.679688 174.125 L 300.679688 176.761719 L 286.21875 176.761719 Z M 286.21875 174.125 " clip-rule="nonzero"/></clipPath><clipPath id="02cb05d2b9"><path d="M 286.964844 174.78125 C 294.8125 174.660156 298.960938 174.140625 299.921875 174.238281 C 300.144531 174.289062 300.246094 174.289062 300.367188 174.386719 C 300.492188 174.511719 300.664062 174.808594 300.640625 175.003906 C 300.613281 175.226562 300.320312 175.621094 300.097656 175.671875 C 299.898438 175.746094 299.578125 175.648438 299.429688 175.5 C 299.28125 175.324219 299.183594 174.855469 299.28125 174.632812 C 299.355469 174.460938 299.652344 174.289062 299.847656 174.265625 C 299.996094 174.214844 300.171875 174.265625 300.292969 174.339844 C 300.441406 174.460938 300.613281 174.734375 300.640625 174.929688 C 300.664062 175.078125 300.613281 175.25 300.539062 175.375 C 300.417969 175.523438 300.269531 175.597656 299.921875 175.695312 C 298.417969 176.117188 288.542969 176.757812 286.964844 176.191406 C 286.542969 176.042969 286.320312 175.792969 286.273438 175.574219 C 286.222656 175.375 286.371094 175.101562 286.496094 174.957031 C 286.617188 174.855469 286.964844 174.78125 286.964844 174.78125 " clip-rule="nonzero"/></clipPath><clipPath id="b9db070905"><path d="M 280.820312 172.449219 L 302.558594 172.449219 L 302.558594 175 L 280.820312 175 Z M 280.820312 172.449219 " clip-rule="nonzero"/></clipPath><clipPath id="aa569749f9"><path d="M 281.496094 172.695312 C 289.542969 172.5 299.789062 172.449219 301.613281 172.917969 C 302.058594 173.042969 302.207031 173.140625 302.355469 173.3125 C 302.476562 173.460938 302.550781 173.683594 302.503906 173.855469 C 302.453125 174.128906 302.058594 174.597656 301.8125 174.671875 C 301.640625 174.746094 301.417969 174.722656 301.242188 174.621094 C 301.046875 174.5 300.773438 174.203125 300.75 173.957031 C 300.699219 173.707031 300.847656 173.339844 301.023438 173.164062 C 301.195312 172.992188 301.589844 172.871094 301.8125 172.945312 C 302.082031 173.042969 302.453125 173.511719 302.503906 173.78125 C 302.550781 173.957031 302.476562 174.175781 302.355469 174.324219 C 302.207031 174.5 302.058594 174.597656 301.613281 174.695312 C 299.492188 175.191406 283.296875 174.671875 281.519531 174.203125 C 281.222656 174.128906 281.148438 174.078125 281.027344 173.957031 C 280.929688 173.832031 280.828125 173.632812 280.828125 173.460938 C 280.828125 173.289062 280.902344 173.089844 281.027344 172.96875 C 281.125 172.820312 281.496094 172.695312 281.496094 172.695312 " clip-rule="nonzero"/></clipPath><clipPath id="d46ffb4f26"><path d="M 280.878906 172.34375 L 287.257812 172.34375 L 287.257812 174.996094 L 280.878906 174.996094 Z M 280.878906 172.34375 " clip-rule="nonzero"/></clipPath><clipPath id="70387d15e4"><path d="M 281.347656 173.238281 C 284.0625 172.695312 286.011719 172.351562 286.679688 172.671875 C 287.023438 172.84375 287.246094 173.238281 287.246094 173.511719 C 287.222656 173.757812 286.828125 174.203125 286.582031 174.277344 C 286.359375 174.351562 285.988281 174.226562 285.839844 174.054688 C 285.667969 173.90625 285.542969 173.535156 285.59375 173.3125 C 285.617188 173.089844 285.863281 172.796875 286.0625 172.695312 C 286.210938 172.621094 286.40625 172.574219 286.582031 172.648438 C 286.828125 172.746094 287.222656 173.140625 287.246094 173.414062 C 287.246094 173.683594 287.023438 174.03125 286.679688 174.25 C 285.839844 174.722656 282.234375 174.992188 281.421875 174.648438 C 281.101562 174.5 280.902344 174.203125 280.902344 173.957031 C 280.878906 173.734375 281.347656 173.238281 281.347656 173.238281 " clip-rule="nonzero"/></clipPath><clipPath id="1fd3c6a444"><path d="M 282.628906 172.140625 L 286.835938 172.140625 L 286.835938 174.382812 L 282.628906 174.382812 Z M 282.628906 172.140625 " clip-rule="nonzero"/></clipPath><clipPath id="7f74faadfd"><path d="M 283 172.769531 C 284.582031 172.277344 285.789062 172.152344 286.261719 172.398438 C 286.554688 172.546875 286.777344 172.945312 286.777344 173.191406 C 286.804688 173.414062 286.605469 173.707031 286.40625 173.832031 C 286.210938 173.957031 285.863281 173.957031 285.667969 173.882812 C 285.46875 173.78125 285.246094 173.488281 285.199219 173.265625 C 285.175781 173.066406 285.296875 172.722656 285.445312 172.574219 C 285.617188 172.425781 285.964844 172.300781 286.160156 172.375 C 286.40625 172.449219 286.730469 172.871094 286.777344 173.117188 C 286.828125 173.265625 286.753906 173.460938 286.65625 173.585938 C 286.53125 173.757812 286.308594 173.855469 285.988281 173.957031 C 285.371094 174.105469 283.617188 174.375 283.101562 174.105469 C 282.804688 173.957031 282.65625 173.609375 282.632812 173.363281 C 282.632812 173.164062 283 172.769531 283 172.769531 " clip-rule="nonzero"/></clipPath><clipPath id="015f484b6a"><path d="M 283.144531 171.804688 L 287.816406 171.804688 L 287.816406 172.625 L 283.144531 172.625 Z M 283.144531 171.804688 " clip-rule="nonzero"/></clipPath><clipPath id="caafa95fc0"><path d="M 283.398438 171.808594 C 287.742188 171.980469 287.816406 172.078125 287.816406 172.179688 C 287.816406 172.253906 287.640625 172.398438 287.542969 172.398438 C 287.46875 172.398438 287.320312 172.203125 287.320312 172.105469 C 287.347656 172.03125 287.542969 171.90625 287.617188 171.90625 C 287.714844 171.929688 287.816406 172.054688 287.816406 172.128906 C 287.816406 172.226562 287.742188 172.328125 287.566406 172.398438 C 287.050781 172.621094 283.816406 172.546875 283.347656 172.300781 C 283.199219 172.226562 283.148438 172.105469 283.148438 172.03125 C 283.148438 171.957031 283.398438 171.808594 283.398438 171.808594 " clip-rule="nonzero"/></clipPath></defs><g fill="#4151a8" fill-opacity="1"><g transform="translate(78.467322, 182.04989)"><g><path d="M 26.265625 0 L 24.890625 -17.3125 L 24.71875 -17.3125 L 18.734375 -0.171875 L 14.765625 -0.171875 L 8.78125 -17.3125 L 8.609375 -17.3125 L 7.21875 0 L 0.5625 0 L 3.1875 -29.203125 L 10.265625 -29.203125 L 16.75 -12.359375 L 23.234375 -29.203125 L 30.3125 -29.203125 L 32.921875 0 Z M 26.265625 0 "/></g></g></g><g fill="#4151a8" fill-opacity="1"><g transform="translate(111.946896, 182.04989)"><g><path d="M 16.953125 -29.203125 L 28.75 0 L 21.59375 0 L 19.4375 -5.84375 L 8.328125 -5.84375 L 6.15625 0 L -0.984375 0 L 10.796875 -29.203125 Z M 17.171875 -11.6875 L 13.921875 -20.1875 L 13.84375 -20.1875 L 10.59375 -11.6875 Z M 17.171875 -11.6875 "/></g></g></g><g fill="#4151a8" fill-opacity="1"><g transform="translate(139.693186, 182.04989)"><g><path d="M 2.125 -29.203125 L 12.5625 -29.203125 C 15.375 -29.203125 17.664062 -28.453125 19.4375 -26.953125 C 21.207031 -25.460938 22.09375 -23.320312 22.09375 -20.53125 C 22.09375 -18.382812 21.554688 -16.582031 20.484375 -15.125 C 19.410156 -13.675781 17.953125 -12.660156 16.109375 -12.078125 L 26.171875 0 L 17.703125 0 L 8.78125 -11.546875 L 8.78125 0 L 2.125 0 Z M 8.78125 -16.25 L 9.5625 -16.25 C 10.175781 -16.25 10.691406 -16.257812 11.109375 -16.28125 C 11.535156 -16.3125 12.019531 -16.394531 12.5625 -16.53125 C 13.113281 -16.675781 13.550781 -16.878906 13.875 -17.140625 C 14.207031 -17.398438 14.488281 -17.773438 14.71875 -18.265625 C 14.957031 -18.765625 15.078125 -19.367188 15.078125 -20.078125 C 15.078125 -20.785156 14.957031 -21.382812 14.71875 -21.875 C 14.488281 -22.375 14.207031 -22.753906 13.875 -23.015625 C 13.550781 -23.273438 13.113281 -23.472656 12.5625 -23.609375 C 12.019531 -23.753906 11.535156 -23.835938 11.109375 -23.859375 C 10.691406 -23.890625 10.175781 -23.90625 9.5625 -23.90625 L 8.78125 -23.90625 Z M 8.78125 -16.25 "/></g></g></g><g fill="#4151a8" fill-opacity="1"><g transform="translate(165.032911, 182.04989)"><g><path d="M 0.28125 -23.375 L 0.28125 -29.203125 L 20.8125 -29.203125 L 20.8125 -23.375 L 13.875 -23.375 L 13.875 0 L 7.21875 0 L 7.21875 -23.375 Z M 0.28125 -23.375 "/></g></g></g><g fill="#4151a8" fill-opacity="1"><g transform="translate(186.125755, 182.04989)"><g><path d="M 8.78125 -11.71875 L 8.78125 0 L 2.125 0 L 2.125 -29.203125 L 8.78125 -29.203125 L 8.78125 -17.5625 L 18.203125 -17.5625 L 18.203125 -29.203125 L 24.859375 -29.203125 L 24.859375 0 L 18.203125 0 L 18.203125 -11.71875 Z M 8.78125 -11.71875 "/></g></g></g><g fill="#4151a8" fill-opacity="1"><g transform="translate(213.093447, 182.04989)"><g><path d="M 16.953125 -29.203125 L 28.75 0 L 21.59375 0 L 19.4375 -5.84375 L 8.328125 -5.84375 L 6.15625 0 L -0.984375 0 L 10.796875 -29.203125 Z M 17.171875 -11.6875 L 13.921875 -20.1875 L 13.84375 -20.1875 L 10.59375 -11.6875 Z M 17.171875 -11.6875 "/></g></g></g><g fill="#4151a8" fill-opacity="1"><g transform="translate(240.839737, 182.04989)"><g><path d="M 3.1875 -28.65625 C 3.894531 -29.375 4.753906 -29.734375 5.765625 -29.734375 C 6.785156 -29.734375 7.660156 -29.367188 8.390625 -28.640625 C 9.117188 -27.910156 9.484375 -27.039062 9.484375 -26.03125 C 9.484375 -22.90625 7.691406 -19.847656 4.109375 -16.859375 L 2.4375 -18.15625 C 2.582031 -18.300781 2.765625 -18.5 2.984375 -18.75 C 3.210938 -19 3.550781 -19.515625 4 -20.296875 C 4.445312 -21.085938 4.742188 -21.890625 4.890625 -22.703125 C 4.085938 -22.890625 3.425781 -23.285156 2.90625 -23.890625 C 2.382812 -24.503906 2.125 -25.21875 2.125 -26.03125 C 2.125 -27.0625 2.476562 -27.9375 3.1875 -28.65625 Z M 3.1875 -28.65625 "/></g></g></g><g fill="#4151a8" fill-opacity="1"><g transform="translate(251.138423, 182.04989)"><g><path d="M 10.015625 -18.6875 C 11.054688 -18.6875 12.082031 -18.566406 13.09375 -18.328125 C 14.113281 -18.097656 14.867188 -17.863281 15.359375 -17.625 L 16.109375 -17.28125 L 14.0625 -13.171875 C 12.644531 -13.921875 11.296875 -14.296875 10.015625 -14.296875 C 9.304688 -14.296875 8.804688 -14.21875 8.515625 -14.0625 C 8.222656 -13.914062 8.078125 -13.628906 8.078125 -13.203125 C 8.078125 -13.109375 8.085938 -13.015625 8.109375 -12.921875 C 8.128906 -12.828125 8.175781 -12.738281 8.25 -12.65625 C 8.320312 -12.570312 8.382812 -12.5 8.4375 -12.4375 C 8.5 -12.382812 8.597656 -12.320312 8.734375 -12.25 C 8.878906 -12.175781 8.992188 -12.117188 9.078125 -12.078125 C 9.160156 -12.046875 9.296875 -11.992188 9.484375 -11.921875 C 9.671875 -11.859375 9.8125 -11.804688 9.90625 -11.765625 C 10.007812 -11.734375 10.171875 -11.679688 10.390625 -11.609375 C 10.617188 -11.535156 10.789062 -11.488281 10.90625 -11.46875 C 11.632812 -11.257812 12.269531 -11.023438 12.8125 -10.765625 C 13.351562 -10.503906 13.925781 -10.148438 14.53125 -9.703125 C 15.132812 -9.253906 15.597656 -8.6875 15.921875 -8 C 16.253906 -7.3125 16.421875 -6.535156 16.421875 -5.671875 C 16.421875 -1.535156 13.554688 0.53125 7.828125 0.53125 C 6.523438 0.53125 5.289062 0.332031 4.125 -0.0625 C 2.957031 -0.46875 2.113281 -0.875 1.59375 -1.28125 L 0.8125 -1.90625 L 3.359375 -6.203125 C 3.546875 -6.035156 3.789062 -5.835938 4.09375 -5.609375 C 4.40625 -5.390625 4.960938 -5.082031 5.765625 -4.6875 C 6.566406 -4.300781 7.265625 -4.109375 7.859375 -4.109375 C 9.160156 -4.109375 9.8125 -4.546875 9.8125 -5.421875 C 9.8125 -5.816406 9.644531 -6.125 9.3125 -6.34375 C 8.976562 -6.570312 8.414062 -6.828125 7.625 -7.109375 C 6.832031 -7.398438 6.210938 -7.660156 5.765625 -7.890625 C 4.640625 -8.484375 3.742188 -9.148438 3.078125 -9.890625 C 2.421875 -10.640625 2.09375 -11.628906 2.09375 -12.859375 C 2.09375 -14.691406 2.804688 -16.117188 4.234375 -17.140625 C 5.660156 -18.171875 7.585938 -18.6875 10.015625 -18.6875 Z M 10.015625 -18.6875 "/></g></g></g><g fill="#d81e5b" fill-opacity="1"><g transform="translate(104.753385, 214.3344)"><g><path d="M 0.5625 -10.015625 C 0.5625 -12.910156 1.546875 -15.359375 3.515625 -17.359375 C 5.484375 -19.367188 7.859375 -20.375 10.640625 -20.375 C 13.441406 -20.375 15.816406 -19.375 17.765625 -17.375 C 19.722656 -15.375 20.703125 -12.921875 20.703125 -10.015625 C 20.703125 -7.085938 19.738281 -4.625 17.8125 -2.625 C 15.894531 -0.632812 13.503906 0.359375 10.640625 0.359375 C 7.710938 0.359375 5.300781 -0.628906 3.40625 -2.609375 C 1.507812 -4.585938 0.5625 -7.054688 0.5625 -10.015625 Z M 5.484375 -10.015625 C 5.484375 -8.960938 5.644531 -8.003906 5.96875 -7.140625 C 6.289062 -6.273438 6.851562 -5.539062 7.65625 -4.9375 C 8.46875 -4.34375 9.460938 -4.046875 10.640625 -4.046875 C 12.335938 -4.046875 13.617188 -4.628906 14.484375 -5.796875 C 15.347656 -6.960938 15.78125 -8.367188 15.78125 -10.015625 C 15.78125 -11.648438 15.335938 -13.050781 14.453125 -14.21875 C 13.578125 -15.394531 12.304688 -15.984375 10.640625 -15.984375 C 8.992188 -15.984375 7.722656 -15.394531 6.828125 -14.21875 C 5.929688 -13.050781 5.484375 -11.648438 5.484375 -10.015625 Z M 5.484375 -10.015625 "/></g></g></g><g fill="#d81e5b" fill-opacity="1"><g transform="translate(135.813809, 214.3344)"><g><path d="M 13.015625 -20 L 13.015625 -16 L 6.015625 -16 L 6.015625 -12.03125 L 12.484375 -12.03125 L 12.484375 -8.03125 L 6.015625 -8.03125 L 6.015625 0 L 1.453125 0 L 1.453125 -20 Z M 13.015625 -20 "/></g></g></g><g fill="#d81e5b" fill-opacity="1"><g transform="translate(159.357938, 214.3344)"><g><path d="M 13.015625 -20 L 13.015625 -16 L 6.015625 -16 L 6.015625 -12.03125 L 12.484375 -12.03125 L 12.484375 -8.03125 L 6.015625 -8.03125 L 6.015625 0 L 1.453125 0 L 1.453125 -20 Z M 13.015625 -20 "/></g></g></g><g fill="#d81e5b" fill-opacity="1"><g transform="translate(182.902067, 214.3344)"><g><path d="M 6.015625 -20 L 6.015625 0 L 1.453125 0 L 1.453125 -20 Z M 6.015625 -20 "/></g></g></g><g fill="#d81e5b" fill-opacity="1"><g transform="translate(200.166457, 214.3344)"><g><path d="M 12.09375 -4.125 C 12.789062 -4.125 13.46875 -4.226562 14.125 -4.4375 C 14.78125 -4.644531 15.257812 -4.847656 15.5625 -5.046875 L 16.03125 -5.359375 L 17.96875 -1.484375 C 17.90625 -1.429688 17.816406 -1.363281 17.703125 -1.28125 C 17.585938 -1.195312 17.320312 -1.046875 16.90625 -0.828125 C 16.5 -0.617188 16.0625 -0.429688 15.59375 -0.265625 C 15.125 -0.109375 14.507812 0.03125 13.75 0.15625 C 12.988281 0.289062 12.203125 0.359375 11.390625 0.359375 C 9.535156 0.359375 7.773438 -0.09375 6.109375 -1 C 4.441406 -1.914062 3.097656 -3.171875 2.078125 -4.765625 C 1.066406 -6.367188 0.5625 -8.101562 0.5625 -9.96875 C 0.5625 -11.375 0.859375 -12.722656 1.453125 -14.015625 C 2.054688 -15.304688 2.851562 -16.410156 3.84375 -17.328125 C 4.832031 -18.253906 5.988281 -18.992188 7.3125 -19.546875 C 8.644531 -20.097656 10.003906 -20.375 11.390625 -20.375 C 12.691406 -20.375 13.882812 -20.21875 14.96875 -19.90625 C 16.0625 -19.601562 16.835938 -19.296875 17.296875 -18.984375 L 17.96875 -18.53125 L 16.03125 -14.640625 C 15.914062 -14.742188 15.742188 -14.863281 15.515625 -15 C 15.296875 -15.132812 14.84375 -15.316406 14.15625 -15.546875 C 13.476562 -15.773438 12.789062 -15.890625 12.09375 -15.890625 C 11 -15.890625 10.015625 -15.707031 9.140625 -15.34375 C 8.265625 -14.988281 7.570312 -14.519531 7.0625 -13.9375 C 6.5625 -13.363281 6.175781 -12.738281 5.90625 -12.0625 C 5.632812 -11.394531 5.5 -10.710938 5.5 -10.015625 C 5.5 -8.492188 6.066406 -7.128906 7.203125 -5.921875 C 8.347656 -4.722656 9.976562 -4.125 12.09375 -4.125 Z M 12.09375 -4.125 "/></g></g></g><g fill="#d81e5b" fill-opacity="1"><g transform="translate(228.220364, 214.3344)"><g><path d="M 12.90625 -20 L 12.90625 -16 L 6.015625 -16 L 6.015625 -12.03125 L 12.609375 -12.03125 L 12.609375 -8.03125 L 6.015625 -8.03125 L 6.015625 -4 L 12.90625 -4 L 12.90625 0 L 1.453125 0 L 1.453125 -20 Z M 12.90625 -20 "/></g></g></g><g mask="url(#5d0668cf3d)"><g transform="matrix(1, 0, 0, 1, 271, 151)"><g clip-path="url(#209c9de1ef)"><g clip-path="url(#f4468bb925)"><path fill="#2a90d5" d="M 34.101562 27.777344 C 33.597656 26.535156 33.25 25.246094 33.078125 23.925781 C 32.753906 21.410156 32.875 18.871094 32.769531 16.339844 C 32.714844 14.953125 32.816406 13.542969 32.527344 12.191406 C 32.085938 10.125 31.480469 8.113281 30.207031 6.332031 C 28.910156 4.515625 27.296875 3.136719 25.273438 2.28125 C 23.339844 1.460938 21.335938 0.9375 19.230469 0.949219 C 17.121094 0.9375 15.117188 1.460938 13.183594 2.28125 C 11.160156 3.136719 9.546875 4.515625 8.25 6.332031 C 6.976562 8.113281 6.371094 10.125 5.929688 12.191406 C 5.640625 13.542969 5.742188 14.953125 5.6875 16.339844 C 5.582031 18.871094 5.703125 21.410156 5.378906 23.925781 C 5.207031 25.246094 4.859375 26.535156 4.355469 27.777344 C 3.210938 30.609375 1.992188 33.410156 1.152344 36.359375 L 37.304688 36.359375 C 36.464844 33.410156 35.246094 30.609375 34.101562 27.777344 Z M 14.148438 33.695312 C 14.039062 33.683594 10.210938 33.292969 9.039062 32.75 C 10.335938 30.875 11.128906 27.933594 13.507812 26.976562 C 15.019531 27.894531 16.730469 28.457031 18.550781 28.570312 C 18.613281 31.195312 17.015625 33.992188 14.148438 33.695312 Z M 10.4375 15.25 C 10.4375 9.839844 14.371094 5.453125 19.230469 5.453125 C 24.085938 5.453125 28.023438 9.839844 28.023438 15.25 C 28.023438 20.660156 24.085938 25.046875 19.230469 25.046875 C 14.371094 25.046875 10.4375 20.660156 10.4375 15.25 Z M 24.53125 33.695312 C 21.660156 33.996094 20.0625 31.183594 20.132812 28.554688 C 21.898438 28.410156 23.554688 27.835938 25.023438 26.929688 C 25.027344 26.925781 25.035156 26.925781 25.042969 26.921875 C 27.523438 27.824219 28.320312 30.839844 29.644531 32.75 C 28.46875 33.292969 24.644531 33.683594 24.53125 33.695312 Z M 24.53125 33.695312 " fill-opacity="1" fill-rule="nonzero"/></g></g></g></g><g mask="url(#73a4914316)"><g transform="matrix(1, 0, 0, 1, 270, 145)"><g clip-path="url(#da94447f77)"><g clip-path="url(#d9eb55ee61)"><path fill="#61b1e6" d="M 38.855469 38.570312 L 1.601562 38.570312 C 1.253906 40.441406 1.320312 42.296875 1.375 44.160156 C 1.488281 47.898438 2.027344 51.597656 2.796875 55.253906 C 3.449219 58.339844 4.359375 61.359375 5.363281 64.347656 C 5.546875 64.894531 5.726562 65.441406 5.902344 65.992188 L 34.554688 65.992188 C 34.730469 65.441406 34.910156 64.894531 35.09375 64.347656 C 36.097656 61.359375 37.007812 58.339844 37.660156 55.253906 C 38.429688 51.597656 38.96875 47.898438 39.082031 44.160156 C 39.136719 42.296875 39.203125 40.441406 38.855469 38.570312 Z M 38.855469 38.570312 " fill-opacity="1" fill-rule="nonzero"/></g><g clip-path="url(#34ecc53aeb)"><path fill="#61b1e6" d="M 7.070312 69.652344 C 7.730469 71.65625 7.839844 71.726562 9.898438 71.726562 C 13.339844 71.726562 16.785156 71.726562 20.230469 71.726562 C 23.671875 71.726562 27.117188 71.726562 30.558594 71.726562 C 32.621094 71.726562 32.726562 71.65625 33.386719 69.652344 C 33.539062 69.183594 33.6875 68.714844 33.839844 68.242188 L 6.617188 68.242188 C 6.769531 68.714844 6.917969 69.183594 7.070312 69.652344 Z M 7.070312 69.652344 " fill-opacity="1" fill-rule="nonzero"/></g><g clip-path="url(#af98c98a47)"><path fill="#61b1e6" d="M 35.101562 27.734375 C 34.597656 26.492188 34.25 25.207031 34.078125 23.886719 C 33.753906 21.367188 33.875 18.828125 33.769531 16.300781 C 33.714844 14.914062 33.816406 13.5 33.527344 12.148438 C 33.085938 10.082031 32.480469 8.070312 31.207031 6.289062 C 29.910156 4.476562 28.296875 3.097656 26.273438 2.238281 C 24.339844 1.421875 22.335938 0.898438 20.230469 0.910156 C 18.121094 0.898438 16.117188 1.421875 14.183594 2.238281 C 12.160156 3.097656 10.546875 4.476562 9.25 6.289062 C 7.976562 8.070312 7.371094 10.082031 6.929688 12.148438 C 6.640625 13.5 6.742188 14.914062 6.6875 16.300781 C 6.582031 18.828125 6.703125 21.367188 6.378906 23.886719 C 6.207031 25.207031 5.859375 26.492188 5.355469 27.734375 C 4.210938 30.570312 2.992188 33.371094 2.152344 36.320312 L 38.304688 36.320312 C 37.464844 33.371094 36.246094 30.570312 35.101562 27.734375 Z M 15.148438 33.652344 C 15.039062 33.640625 11.210938 33.253906 10.039062 32.710938 C 11.335938 30.832031 12.128906 27.894531 14.507812 26.933594 C 16.019531 27.851562 17.730469 28.417969 19.550781 28.53125 C 19.613281 31.152344 18.015625 33.953125 15.148438 33.652344 Z M 11.4375 15.210938 C 11.4375 9.800781 15.371094 5.414062 20.230469 5.414062 C 25.085938 5.414062 29.023438 9.800781 29.023438 15.210938 C 29.023438 20.621094 25.085938 25.003906 20.230469 25.003906 C 15.371094 25.003906 11.4375 20.621094 11.4375 15.210938 Z M 25.53125 33.652344 C 22.660156 33.953125 21.0625 31.140625 21.132812 28.515625 C 22.898438 28.367188 24.554688 27.796875 26.023438 26.890625 C 26.027344 26.886719 26.035156 26.882812 26.042969 26.882812 C 28.523438 27.785156 29.320312 30.796875 30.644531 32.710938 C 29.46875 33.253906 25.644531 33.640625 25.53125 33.652344 Z M 25.53125 33.652344 " fill-opacity="1" fill-rule="nonzero"/></g></g></g></g><g clip-path="url(#5e4be13264)"><path fill="#faa916" d="M 290.207031 169.800781 C 289.714844 169.800781 289.234375 169.71875 288.769531 169.550781 C 288.308594 169.382812 287.886719 169.140625 287.507812 168.824219 C 287.128906 168.507812 286.816406 168.136719 286.566406 167.710938 C 286.320312 167.285156 286.152344 166.828125 286.0625 166.34375 C 286.039062 166.21875 286.066406 166.105469 286.136719 166 C 286.207031 165.894531 286.304688 165.832031 286.429688 165.808594 C 286.554688 165.785156 286.667969 165.808594 286.773438 165.882812 C 286.878906 165.953125 286.941406 166.050781 286.964844 166.175781 C 287.039062 166.554688 287.171875 166.910156 287.367188 167.242188 C 287.5625 167.574219 287.808594 167.863281 288.105469 168.109375 C 288.398438 168.355469 288.726562 168.546875 289.089844 168.679688 C 289.449219 168.8125 289.824219 168.882812 290.210938 168.886719 C 290.222656 168.886719 290.234375 168.886719 290.25 168.886719 C 290.632812 168.878906 291 168.808594 291.359375 168.675781 C 291.714844 168.539062 292.042969 168.347656 292.332031 168.101562 C 292.625 167.855469 292.867188 167.566406 293.058594 167.234375 C 293.25 166.90625 293.378906 166.550781 293.449219 166.175781 C 293.472656 166.050781 293.535156 165.953125 293.640625 165.882812 C 293.746094 165.808594 293.859375 165.785156 293.984375 165.808594 C 294.109375 165.832031 294.207031 165.894531 294.277344 166 C 294.347656 166.101562 294.375 166.21875 294.351562 166.34375 C 294.261719 166.824219 294.09375 167.273438 293.847656 167.695312 C 293.605469 168.117188 293.296875 168.488281 292.921875 168.800781 C 292.550781 169.117188 292.132812 169.359375 291.675781 169.53125 C 291.21875 169.703125 290.746094 169.792969 290.257812 169.800781 Z M 290.207031 169.800781 " fill-opacity="1" fill-rule="nonzero"/></g><g clip-path="url(#fd808d40cd)"><g clip-path="url(#416b191685)"><path fill="#cbe5f6" d="M 288.976562 171.609375 L 302.015625 171.609375 L 302.015625 176.203125 L 288.976562 176.203125 Z M 288.976562 171.609375 " fill-opacity="1" fill-rule="nonzero"/></g></g><g clip-path="url(#37bc683f1c)"><g clip-path="url(#7590e39bed)"><path fill="#cbe5f6" d="M 289.097656 174.25 L 302.546875 174.25 L 302.546875 178.175781 L 289.097656 178.175781 Z M 289.097656 174.25 " fill-opacity="1" fill-rule="nonzero"/></g></g><g clip-path="url(#666c50ac26)"><g clip-path="url(#a490eeee80)"><path fill="#cbe5f6" d="M 290.457031 175.808594 L 301.335938 175.808594 L 301.335938 180.054688 L 290.457031 180.054688 Z M 290.457031 175.808594 " fill-opacity="1" fill-rule="nonzero"/></g></g><g clip-path="url(#e12dc90112)"><g clip-path="url(#1b60bbc6a3)"><path fill="#cbe5f6" d="M 291.246094 175.929688 L 303.539062 175.929688 L 303.539062 180.570312 L 291.246094 180.570312 Z M 291.246094 175.929688 " fill-opacity="1" fill-rule="nonzero"/></g></g><g clip-path="url(#f69b2ddcf8)"><g clip-path="url(#5bc4c0157f)"><path fill="#cbe5f6" d="M 279.84375 172.597656 L 307.085938 172.597656 L 307.085938 181.113281 L 279.84375 181.113281 Z M 279.84375 172.597656 " fill-opacity="1" fill-rule="nonzero"/></g></g><g clip-path="url(#117e013f9a)"><g clip-path="url(#6a858c0007)"><path fill="#cbe5f6" d="M 275.546875 173.523438 L 295.824219 173.523438 L 295.824219 182.894531 L 275.546875 182.894531 Z M 275.546875 173.523438 " fill-opacity="1" fill-rule="nonzero"/></g></g><g clip-path="url(#b4dbeba067)"><g clip-path="url(#df066f7d0d)"><path fill="#cbe5f6" d="M 278.273438 171.660156 L 291.949219 171.660156 L 291.949219 179.707031 L 278.273438 179.707031 Z M 278.273438 171.660156 " fill-opacity="1" fill-rule="nonzero"/></g></g><g clip-path="url(#1867b9429d)"><g clip-path="url(#fe7698938d)"><path fill="#cbe5f6" d="M 291.949219 175.089844 L 303.929688 175.089844 L 303.929688 178.867188 L 291.949219 178.867188 Z M 291.949219 175.089844 " fill-opacity="1" fill-rule="nonzero"/></g></g><g clip-path="url(#49b33688b1)"><g clip-path="url(#95a71fdfc2)"><path fill="#cbe5f6" d="M 297.886719 174.648438 L 302.921875 174.648438 L 302.921875 179.703125 L 297.886719 179.703125 Z M 297.886719 174.648438 " fill-opacity="1" fill-rule="nonzero"/></g></g><g clip-path="url(#980d118d90)"><g clip-path="url(#02cb05d2b9)"><path fill="#cbe5f6" d="M 285.285156 173.253906 L 301.644531 173.253906 L 301.644531 177.175781 L 285.285156 177.175781 Z M 285.285156 173.253906 " fill-opacity="1" fill-rule="nonzero"/></g></g><g clip-path="url(#b9db070905)"><g clip-path="url(#aa569749f9)"><path fill="#cbe5f6" d="M 279.84375 171.535156 L 303.488281 171.535156 L 303.488281 175.707031 L 279.84375 175.707031 Z M 279.84375 171.535156 " fill-opacity="1" fill-rule="nonzero"/></g></g><g clip-path="url(#d46ffb4f26)"><g clip-path="url(#70387d15e4)"><path fill="#cbe5f6" d="M 279.914062 171.660156 L 288.238281 171.660156 L 288.238281 175.632812 L 279.914062 175.632812 Z M 279.914062 171.660156 " fill-opacity="1" fill-rule="nonzero"/></g></g><g clip-path="url(#1fd3c6a444)"><g clip-path="url(#7f74faadfd)"><path fill="#cbe5f6" d="M 281.644531 171.386719 L 287.792969 171.386719 L 287.792969 175.089844 L 281.644531 175.089844 Z M 281.644531 171.386719 " fill-opacity="1" fill-rule="nonzero"/></g></g><g clip-path="url(#015f484b6a)"><g clip-path="url(#caafa95fc0)"><path fill="#ffffff" d="M 282.164062 170.820312 L 288.832031 170.820312 L 288.832031 173.386719 L 282.164062 173.386719 Z M 282.164062 170.820312 " fill-opacity="1" fill-rule="nonzero"/></g></g></svg>