<svg xmlns="http://www.w3.org/2000/svg" xmlns:xlink="http://www.w3.org/1999/xlink" width="1920" zoomAndPan="magnify" viewBox="0 0 1440 809.999993" height="1080" preserveAspectRatio="xMidYMid meet" version="1.0"><defs><clipPath id="c82a08a6cb"><path d="M 1085 0 L 1440 0 L 1440 810 L 1085 810 Z M 1085 0 " clip-rule="nonzero"/></clipPath><clipPath id="f1de95610b"><path d="M 846.304688 467.386719 L 1872.402344 -228.390625 L 2398.96875 548.164062 L 1372.871094 1243.941406 Z M 846.304688 467.386719 " clip-rule="nonzero"/></clipPath><clipPath id="498b93b577"><path d="M 846.304688 467.386719 L 1872.402344 -228.390625 L 2398.96875 548.164062 L 1372.871094 1243.941406 Z M 846.304688 467.386719 " clip-rule="nonzero"/></clipPath><clipPath id="c7eb99f21c"><path d="M 1872.183594 -228.246094 L 2398.597656 548.082031 L 1373.148438 1243.417969 L 1086.433594 820.585938 C 1076.402344 653.382812 1151.984375 484.832031 1299.9375 384.507812 C 1339.660156 357.570312 1381.996094 337.304688 1425.652344 323.453125 C 1572.988281 276.65625 1701.621094 164.136719 1730.742188 12.328125 C 1747.191406 -73.402344 1788.792969 -171.699219 1872.183594 -228.246094 Z M 1872.183594 -228.246094 " clip-rule="nonzero"/></clipPath><clipPath id="b03eb4f374"><path d="M 0 0 L 387 0 L 387 810 L 0 810 Z M 0 0 " clip-rule="nonzero"/></clipPath><clipPath id="0b8407b705"><path d="M 499.304688 -344.054688 L 385.464844 890.457031 L -548.820312 804.300781 L -434.980469 -430.210938 Z M 499.304688 -344.054688 " clip-rule="nonzero"/></clipPath><clipPath id="b4e38539c1"><path d="M 499.304688 -344.054688 L 385.464844 890.457031 L -548.820312 804.300781 L -434.980469 -430.210938 Z M 499.304688 -344.054688 " clip-rule="nonzero"/></clipPath><clipPath id="8fbf71a46f"><path d="M 385.488281 890.195312 L -548.519531 804.066406 L -434.75 -429.667969 L 73.964844 -382.753906 C 209.519531 -284.351562 291.765625 -118.953125 275.351562 59.050781 C 270.945312 106.847656 259.722656 152.421875 242.710938 194.945312 C 185.332031 338.488281 190.605469 509.308594 289.410156 628.1875 C 345.207031 695.320312 394.742188 789.871094 385.488281 890.195312 Z M 385.488281 890.195312 " clip-rule="nonzero"/></clipPath><clipPath id="14e4430a42"><path d="M 479 0 L 1440 0 L 1440 352 L 479 352 Z M 479 0 " clip-rule="nonzero"/></clipPath><clipPath id="0a32acbe3e"><path d="M 1478.902344 656.710938 L 479.601562 -77.035156 L 1034.90625 -833.3125 L 2034.203125 -99.566406 Z M 1478.902344 656.710938 " clip-rule="nonzero"/></clipPath><clipPath id="73e4d31ab6"><path d="M 1478.902344 656.710938 L 479.601562 -77.035156 L 1034.90625 -833.3125 L 2034.203125 -99.566406 Z M 1478.902344 656.710938 " clip-rule="nonzero"/></clipPath><clipPath id="5b43e4bb3c"><path d="M 479.8125 -76.882812 L 1034.953125 -832.933594 L 2033.621094 -99.652344 L 1731.257812 312.140625 C 1577.074219 377.601562 1392.945312 362.847656 1248.855469 257.046875 C 1210.167969 228.640625 1176.894531 195.539062 1149.214844 159.046875 C 1055.769531 35.898438 906.660156 -47.609375 753.867188 -24.199219 C 667.582031 -10.976562 561.027344 -17.25 479.8125 -76.882812 Z M 479.8125 -76.882812 " clip-rule="nonzero"/></clipPath></defs><rect x="-144" width="1728" fill="#ffffff" y="-80.999999" height="971.999992" fill-opacity="1"/><rect x="-144" width="1728" fill="#ffffff" y="-80.999999" height="971.999992" fill-opacity="1"/><g clip-path="url(#c82a08a6cb)"><g clip-path="url(#f1de95610b)"><g clip-path="url(#498b93b577)"><g clip-path="url(#c7eb99f21c)"><path fill="#fda1a2" d="M 700.152344 255.128906 L 1190.925781 978.890625 L 1816.25 554.871094 L 1325.476562 -168.890625 Z M 700.152344 255.128906 " fill-opacity="1" fill-rule="nonzero"/></g></g></g></g><g clip-path="url(#b03eb4f374)"><g clip-path="url(#0b8407b705)"><g clip-path="url(#b4e38539c1)"><g clip-path="url(#8fbf71a46f)"><path fill="#1d1842" d="M 468.804688 6.828125 L 3.328125 -36.09375 L -74.066406 803.171875 L 391.414062 846.09375 Z M 468.804688 6.828125 " fill-opacity="1" fill-rule="nonzero"/></g></g></g></g><g clip-path="url(#14e4430a42)"><g clip-path="url(#0a32acbe3e)"><g clip-path="url(#73e4d31ab6)"><g clip-path="url(#5b43e4bb3c)"><path fill="#8e0d3c" d="M 1103.660156 835.664062 L 1620.136719 132.269531 L 816.152344 -458.066406 L 299.675781 245.332031 Z M 1103.660156 835.664062 " fill-opacity="1" fill-rule="nonzero"/></g></g></g></g></svg>