<svg xmlns="http://www.w3.org/2000/svg" xmlns:xlink="http://www.w3.org/1999/xlink" width="1920" zoomAndPan="magnify" viewBox="0 0 1440 809.999993" height="1080" preserveAspectRatio="xMidYMid meet" version="1.0"><defs><clipPath id="5a2abd5c88"><path d="M 536 0 L 1440 0 L 1440 810 L 536 810 Z M 536 0 " clip-rule="nonzero"/></clipPath><clipPath id="5fc27675f6"><path d="M 353.917969 273.152344 L 1475.613281 -254.839844 L 1875.203125 594.066406 L 753.507812 1122.058594 Z M 353.917969 273.152344 " clip-rule="nonzero"/></clipPath><clipPath id="ee8a439fa7"><path d="M 353.917969 273.152344 L 1475.613281 -254.839844 L 1875.203125 594.066406 L 753.507812 1122.058594 Z M 353.917969 273.152344 " clip-rule="nonzero"/></clipPath><clipPath id="4c867abfb7"><path d="M 1475.378906 -254.726562 L 1874.847656 593.925781 L 753.859375 1121.585938 L 536.285156 659.359375 C 552.339844 492.625 653.179688 337.855469 814.917969 261.726562 C 858.34375 241.285156 903.3125 227.839844 948.589844 220.933594 C 1101.40625 197.585938 1245.949219 106.40625 1298.292969 -39.039062 C 1327.851562 -121.175781 1384.21875 -211.820312 1475.378906 -254.726562 Z M 1475.378906 -254.726562 " clip-rule="nonzero"/></clipPath><clipPath id="1a1e843f42"><path d="M 81 205.136719 L 1440 205.136719 L 1440 810 L 81 810 Z M 81 205.136719 " clip-rule="nonzero"/></clipPath><clipPath id="54950f33ec"><path d="M 1518.492188 205.136719 L 1518.492188 1292.945312 L 81.609375 1292.945312 L 81.609375 700.457031 C 180.808594 533.433594 363.066406 420.839844 570.378906 420.839844 C 626.042969 420.839844 679.871094 428.945312 730.792969 444.058594 C 902.671875 495.039062 1099.382812 470.757812 1226.144531 343.996094 C 1297.730469 272.410156 1401.644531 205.136719 1518.492188 205.136719 Z M 1518.492188 205.136719 " clip-rule="nonzero"/></clipPath><clipPath id="6351a3a92b"><path d="M 0 0 L 868 0 L 868 810 L 0 810 Z M 0 0 " clip-rule="nonzero"/></clipPath><clipPath id="0b278f8060"><path d="M 1085.921875 258.503906 L 20.253906 892.011719 L -459.1875 85.507812 L 606.476562 -548 Z M 1085.921875 258.503906 " clip-rule="nonzero"/></clipPath><clipPath id="4cdc7ef8eb"><path d="M 1085.921875 258.503906 L 20.253906 892.011719 L -459.1875 85.507812 L 606.476562 -548 Z M 1085.921875 258.503906 " clip-rule="nonzero"/></clipPath><clipPath id="93211662ab"><path d="M 20.480469 891.878906 L -458.820312 85.613281 L 606.171875 -547.496094 L 867.230469 -108.355469 C 867.292969 59.148438 781.820312 222.90625 628.164062 314.25 C 586.90625 338.777344 543.441406 356.484375 499.035156 367.71875 C 349.179688 405.667969 214.082031 510.335938 175.980469 660.144531 C 154.464844 744.742188 107.085938 840.394531 20.480469 891.878906 Z M 20.480469 891.878906 " clip-rule="nonzero"/></clipPath></defs><g clip-path="url(#5a2abd5c88)"><g clip-path="url(#5fc27675f6)"><g clip-path="url(#ee8a439fa7)"><g clip-path="url(#4c867abfb7)"><path fill="#ef3b33" d="M 224.164062 146.917969 L 700.199219 1158.230469 L 1752.117188 663.082031 L 1276.085938 -348.230469 Z M 224.164062 146.917969 " fill-opacity="1" fill-rule="nonzero"/></g></g></g></g><g clip-path="url(#1a1e843f42)"><g clip-path="url(#54950f33ec)"><path fill="#8e0d3c" d="M 81.609375 205.136719 L 81.609375 810 L 1440 810 L 1440 205.136719 Z M 81.609375 205.136719 " fill-opacity="1" fill-rule="nonzero"/></g></g><g clip-path="url(#6351a3a92b)"><g clip-path="url(#0b278f8060)"><g clip-path="url(#4cdc7ef8eb)"><g clip-path="url(#93211662ab)"><path fill="#1d1842" d="M 1223.082031 598.492188 L 640.828125 -380.953125 L -355.789062 211.507812 L 226.46875 1190.953125 Z M 1223.082031 598.492188 " fill-opacity="1" fill-rule="nonzero"/></g></g></g></g></svg>